<?xml version="1.0" encoding="UTF-8" standalone="no"?>
<!DOCTYPE svg PUBLIC "-//W3C//DTD SVG 1.1//EN"
 "http://www.w3.org/Graphics/SVG/1.1/DTD/svg11.dtd">
<!-- Generated by graphviz version 2.26.3 (20100126.1600)
 -->
<!-- Title: G Pages: 1 -->
<svg width="587pt" height="1174pt"
 viewBox="0.00 0.00 587.00 1174.00" xmlns="http://www.w3.org/2000/svg" xmlns:xlink="http://www.w3.org/1999/xlink">
<g id="graph1" class="graph" transform="scale(1 1) rotate(0) translate(4 1170)">
<title>G</title>
<polygon fill="white" stroke="white" points="-4,5 -4,-1170 584,-1170 584,5 -4,5"/>
<g id="graph2" class="cluster"><title>cluster_Global</title>
<polyline fill="none" stroke="gray" points="20,-44 559,-44 "/>
<path fill="none" stroke="gray" d="M559,-44C565,-44 571,-50 571,-56"/>
<polyline fill="none" stroke="gray" points="571,-56 571,-1146 "/>
<path fill="none" stroke="gray" d="M571,-1146C571,-1152 565,-1158 559,-1158"/>
<polyline fill="none" stroke="gray" points="559,-1158 20,-1158 "/>
<path fill="none" stroke="gray" d="M20,-1158C14,-1158 8,-1152 8,-1146"/>
<polyline fill="none" stroke="gray" points="8,-1146 8,-56 "/>
<path fill="none" stroke="gray" d="M8,-56C8,-50 14,-44 20,-44"/>
<text text-anchor="middle" x="289.5" y="-1144.1" font-family="Times Roman,serif" font-size="11.00" fill="gray">\</text>
</g>
<g id="graph3" class="cluster"><title>cluster_\SimpleAR</title>
<polyline fill="none" stroke="gray" points="28,-52 551,-52 "/>
<path fill="none" stroke="gray" d="M551,-52C557,-52 563,-58 563,-64"/>
<polyline fill="none" stroke="gray" points="563,-64 563,-1116 "/>
<path fill="none" stroke="gray" d="M563,-1116C563,-1122 557,-1128 551,-1128"/>
<polyline fill="none" stroke="gray" points="551,-1128 28,-1128 "/>
<path fill="none" stroke="gray" d="M28,-1128C22,-1128 16,-1122 16,-1116"/>
<polyline fill="none" stroke="gray" points="16,-1116 16,-64 "/>
<path fill="none" stroke="gray" d="M16,-64C16,-58 22,-52 28,-52"/>
<text text-anchor="middle" x="289.5" y="-1114.1" font-family="Times Roman,serif" font-size="11.00" fill="gray">SimpleAR</text>
</g>
<g id="graph4" class="cluster"><title>cluster_\SimpleAR\Query</title>
<polyline fill="none" stroke="gray" points="224,-808 498,-808 "/>
<path fill="none" stroke="gray" d="M498,-808C504,-808 510,-814 510,-820"/>
<polyline fill="none" stroke="gray" points="510,-820 510,-1086 "/>
<path fill="none" stroke="gray" d="M510,-1086C510,-1092 504,-1098 498,-1098"/>
<polyline fill="none" stroke="gray" points="498,-1098 224,-1098 "/>
<path fill="none" stroke="gray" d="M224,-1098C218,-1098 212,-1092 212,-1086"/>
<polyline fill="none" stroke="gray" points="212,-1086 212,-820 "/>
<path fill="none" stroke="gray" d="M212,-820C212,-814 218,-808 224,-808"/>
<text text-anchor="middle" x="361" y="-1084.1" font-family="Times Roman,serif" font-size="11.00" fill="gray">Query</text>
</g>
<!-- \\SimpleAR\\Query\\Insert -->
<g id="node4" class="node"><title>\\SimpleAR\\Query\\Insert</title>
<polygon fill="none" stroke="black" points="501,-1068 447,-1068 447,-1032 501,-1032 501,-1068"/>
<text text-anchor="middle" x="474" y="-1047.1" font-family="Times Roman,serif" font-size="11.00">Insert</text>
</g>
<!-- \\SimpleAR\\Query -->
<g id="node17" class="node"><title>\\SimpleAR\\Query</title>
<polygon fill="none" stroke="black" points="101,-996 25,-996 25,-960 101,-960 101,-996"/>
<text text-anchor="start" x="33" y="-983.433" font-family="Times Roman,serif" font-size="11.00">«abstract»</text>
<text text-anchor="start" x="46" y="-970.233" font-family="Times Roman,serif" font-size="11.00">Query</text>
</g>
<!-- \\SimpleAR\\Query\\Insert&#45;&gt;\\SimpleAR\\Query -->
<g id="edge15" class="edge"><title>\\SimpleAR\\Query\\Insert&#45;&gt;\\SimpleAR\\Query</title>
<path fill="none" stroke="black" d="M446.715,-1045.22C378.249,-1033.23 198.452,-1001.73 111.487,-986.494"/>
<polygon fill="none" stroke="black" points="112.06,-983.041 101.606,-984.763 110.852,-989.936 112.06,-983.041"/>
</g>
<!-- \\SimpleAR\\Query\\Count -->
<g id="node5" class="node"><title>\\SimpleAR\\Query\\Count</title>
<polygon fill="none" stroke="black" points="501,-1014 447,-1014 447,-978 501,-978 501,-1014"/>
<text text-anchor="middle" x="474" y="-993.1" font-family="Times Roman,serif" font-size="11.00">Count</text>
</g>
<!-- \\SimpleAR\\Query\\Where -->
<g id="node6" class="node"><title>\\SimpleAR\\Query\\Where</title>
<polygon fill="none" stroke="black" points="297,-960 221,-960 221,-924 297,-924 297,-960"/>
<text text-anchor="start" x="229" y="-947.433" font-family="Times Roman,serif" font-size="11.00">«abstract»</text>
<text text-anchor="start" x="241" y="-934.233" font-family="Times Roman,serif" font-size="11.00">Where</text>
</g>
<!-- \\SimpleAR\\Query\\Count&#45;&gt;\\SimpleAR\\Query\\Where -->
<g id="edge23" class="edge"><title>\\SimpleAR\\Query\\Count&#45;&gt;\\SimpleAR\\Query\\Where</title>
<path fill="none" stroke="black" d="M446.77,-989.161C411.757,-980.367 350.35,-964.944 307.32,-954.136"/>
<polygon fill="none" stroke="black" points="308.171,-950.741 297.62,-951.7 306.466,-957.531 308.171,-950.741"/>
</g>
<!-- \\SimpleAR\\Query\\Where&#45;&gt;\\SimpleAR\\Query -->
<g id="edge25" class="edge"><title>\\SimpleAR\\Query\\Where&#45;&gt;\\SimpleAR\\Query</title>
<path fill="none" stroke="black" d="M220.277,-949.112C189.137,-954.832 145.206,-962.901 111.686,-969.058"/>
<polygon fill="none" stroke="black" points="110.846,-965.653 101.643,-970.902 112.111,-972.538 110.846,-965.653"/>
</g>
<!-- \\SimpleAR\\Query\\Delete -->
<g id="node7" class="node"><title>\\SimpleAR\\Query\\Delete</title>
<polygon fill="none" stroke="black" points="501,-960 447,-960 447,-924 501,-924 501,-960"/>
<text text-anchor="middle" x="474" y="-939.1" font-family="Times Roman,serif" font-size="11.00">Delete</text>
</g>
<!-- \\SimpleAR\\Query\\Delete&#45;&gt;\\SimpleAR\\Query\\Where -->
<g id="edge31" class="edge"><title>\\SimpleAR\\Query\\Delete&#45;&gt;\\SimpleAR\\Query\\Where</title>
<path fill="none" stroke="black" d="M446.77,-942C411.904,-942 350.866,-942 307.864,-942"/>
<polygon fill="none" stroke="black" points="307.62,-938.5 297.62,-942 307.62,-945.5 307.62,-938.5"/>
</g>
<!-- \\SimpleAR\\Query\\Select -->
<g id="node8" class="node"><title>\\SimpleAR\\Query\\Select</title>
<polygon fill="none" stroke="black" points="501,-906 447,-906 447,-870 501,-870 501,-906"/>
<text text-anchor="middle" x="474" y="-885.1" font-family="Times Roman,serif" font-size="11.00">Select</text>
</g>
<!-- \\SimpleAR\\Query\\Select&#45;&gt;\\SimpleAR\\Query\\Where -->
<g id="edge33" class="edge"><title>\\SimpleAR\\Query\\Select&#45;&gt;\\SimpleAR\\Query\\Where</title>
<path fill="none" stroke="black" d="M446.77,-894.839C411.757,-903.633 350.35,-919.056 307.32,-929.864"/>
<polygon fill="none" stroke="black" points="306.466,-926.469 297.62,-932.3 308.171,-933.259 306.466,-926.469"/>
</g>
<!-- \\SimpleAR\\Query\\Update -->
<g id="node9" class="node"><title>\\SimpleAR\\Query\\Update</title>
<polygon fill="none" stroke="black" points="502,-852 446,-852 446,-816 502,-816 502,-852"/>
<text text-anchor="middle" x="474" y="-831.1" font-family="Times Roman,serif" font-size="11.00">Update</text>
</g>
<!-- \\SimpleAR\\Query\\Update&#45;&gt;\\SimpleAR\\Query\\Where -->
<g id="edge35" class="edge"><title>\\SimpleAR\\Query\\Update&#45;&gt;\\SimpleAR\\Query\\Where</title>
<path fill="none" stroke="black" d="M445.96,-840.626C429.863,-845.085 409.613,-851.835 393,-861 356.775,-880.984 357.031,-899.669 321,-920 316.575,-922.497 311.816,-924.79 306.972,-926.875"/>
<polygon fill="none" stroke="black" points="305.597,-923.656 297.619,-930.628 308.203,-930.153 305.597,-923.656"/>
</g>
<!-- \\SimpleAR\\Relationship -->
<g id="node10" class="node"><title>\\SimpleAR\\Relationship</title>
<polygon fill="none" stroke="black" points="300,-717 218,-717 218,-681 300,-681 300,-717"/>
<text text-anchor="start" x="229" y="-704.433" font-family="Times Roman,serif" font-size="11.00">«abstract»</text>
<text text-anchor="start" x="226.5" y="-691.233" font-family="Times Roman,serif" font-size="11.00">Relationship</text>
</g>
<!-- \\SimpleAR\\BelongsTo -->
<g id="node11" class="node"><title>\\SimpleAR\\BelongsTo</title>
<polygon fill="none" stroke="black" points="509,-636 439,-636 439,-600 509,-600 509,-636"/>
<text text-anchor="middle" x="474" y="-615.1" font-family="Times Roman,serif" font-size="11.00">BelongsTo</text>
</g>
<!-- \\SimpleAR\\BelongsTo&#45;&gt;\\SimpleAR\\Relationship -->
<g id="edge5" class="edge"><title>\\SimpleAR\\BelongsTo&#45;&gt;\\SimpleAR\\Relationship</title>
<path fill="none" stroke="black" d="M438.35,-629.36C424.169,-634.015 407.747,-639.577 393,-645 365.134,-655.248 334.386,-667.565 309.381,-677.846"/>
<polygon fill="none" stroke="black" points="308.005,-674.628 300.097,-681.678 310.675,-681.098 308.005,-674.628"/>
</g>
<!-- \\SimpleAR\\HasOne -->
<g id="node12" class="node"><title>\\SimpleAR\\HasOne</title>
<polygon fill="none" stroke="black" points="504,-798 444,-798 444,-762 504,-762 504,-798"/>
<text text-anchor="middle" x="474" y="-777.1" font-family="Times Roman,serif" font-size="11.00">HasOne</text>
</g>
<!-- \\SimpleAR\\HasOne&#45;&gt;\\SimpleAR\\Relationship -->
<g id="edge7" class="edge"><title>\\SimpleAR\\HasOne&#45;&gt;\\SimpleAR\\Relationship</title>
<path fill="none" stroke="black" d="M443.843,-770.434C428.536,-765.456 409.695,-759.14 393,-753 365.134,-742.752 334.386,-730.435 309.381,-720.154"/>
<polygon fill="none" stroke="black" points="310.675,-716.902 300.097,-716.322 308.005,-723.372 310.675,-716.902"/>
</g>
<!-- \\SimpleAR\\HasMany -->
<g id="node13" class="node"><title>\\SimpleAR\\HasMany</title>
<polygon fill="none" stroke="black" points="507,-744 441,-744 441,-708 507,-708 507,-744"/>
<text text-anchor="middle" x="474" y="-723.1" font-family="Times Roman,serif" font-size="11.00">HasMany</text>
</g>
<!-- \\SimpleAR\\HasMany&#45;&gt;\\SimpleAR\\Relationship -->
<g id="edge9" class="edge"><title>\\SimpleAR\\HasMany&#45;&gt;\\SimpleAR\\Relationship</title>
<path fill="none" stroke="black" d="M440.406,-721.781C405.531,-717.402 350.542,-710.496 310.24,-705.435"/>
<polygon fill="none" stroke="black" points="310.431,-701.931 300.073,-704.158 309.559,-708.877 310.431,-701.931"/>
</g>
<!-- \\SimpleAR\\ManyMany -->
<g id="node14" class="node"><title>\\SimpleAR\\ManyMany</title>
<polygon fill="none" stroke="black" points="511,-690 437,-690 437,-654 511,-654 511,-690"/>
<text text-anchor="middle" x="474" y="-669.1" font-family="Times Roman,serif" font-size="11.00">ManyMany</text>
</g>
<!-- \\SimpleAR\\ManyMany&#45;&gt;\\SimpleAR\\Relationship -->
<g id="edge11" class="edge"><title>\\SimpleAR\\ManyMany&#45;&gt;\\SimpleAR\\Relationship</title>
<path fill="none" stroke="black" d="M436.057,-676.765C401.088,-681.156 348.91,-687.709 310.247,-692.564"/>
<polygon fill="none" stroke="black" points="309.713,-689.104 300.228,-693.823 310.586,-696.049 309.713,-689.104"/>
</g>
<!-- \\SimpleAR\\Database -->
<g id="node15" class="node"><title>\\SimpleAR\\Database</title>
<polygon fill="none" stroke="black" points="508,-582 440,-582 440,-546 508,-546 508,-582"/>
<text text-anchor="middle" x="474" y="-561.1" font-family="Times Roman,serif" font-size="11.00">Database</text>
</g>
<!-- \\SimpleAR\\ReadOnlyException -->
<g id="node16" class="node"><title>\\SimpleAR\\ReadOnlyException</title>
<polygon fill="none" stroke="black" points="535,-366 413,-366 413,-330 535,-330 535,-366"/>
<text text-anchor="middle" x="474" y="-345.1" font-family="Times Roman,serif" font-size="11.00">ReadOnlyException</text>
</g>
<!-- \\SimpleAR\\Exception -->
<g id="node18" class="node"><title>\\SimpleAR\\Exception</title>
<polygon fill="none" stroke="black" points="294,-420 224,-420 224,-384 294,-384 294,-420"/>
<text text-anchor="middle" x="259" y="-399.1" font-family="Times Roman,serif" font-size="11.00">Exception</text>
</g>
<!-- \\SimpleAR\\ReadOnlyException&#45;&gt;\\SimpleAR\\Exception -->
<g id="edge13" class="edge"><title>\\SimpleAR\\ReadOnlyException&#45;&gt;\\SimpleAR\\Exception</title>
<path fill="none" stroke="black" d="M412.965,-363.33C378.237,-372.052 335.499,-382.786 303.869,-390.73"/>
<polygon fill="none" stroke="black" points="302.861,-387.375 294.014,-393.206 304.566,-394.164 302.861,-387.375"/>
</g>
<!-- \\Exception -->
<g id="node35" class="node"><title>\\Exception</title>
<ellipse fill="none" stroke="black" cx="63" cy="-18" rx="62.2254" ry="18.3848"/>
<text text-anchor="middle" x="63" y="-14.4" font-family="Times Roman,serif" font-size="14.00" fill="gray">\Exception</text>
</g>
<!-- \\SimpleAR\\Exception&#45;&gt;\\Exception -->
<g id="edge17" class="edge"><title>\\SimpleAR\\Exception&#45;&gt;\\Exception</title>
<path fill="none" stroke="black" d="M241.645,-383.796C227.708,-368.247 208.61,-344.695 197,-321 141.789,-208.317 204.777,-144.857 125,-48 121.484,-43.7311 117.215,-40.0255 112.579,-36.819"/>
<polygon fill="none" stroke="black" points="114.289,-33.7628 103.923,-31.5725 110.661,-39.749 114.289,-33.7628"/>
</g>
<!-- \\SimpleAR\\RecordNotFoundException -->
<g id="node19" class="node"><title>\\SimpleAR\\RecordNotFoundException</title>
<polygon fill="none" stroke="black" points="554,-528 394,-528 394,-492 554,-492 554,-528"/>
<text text-anchor="middle" x="474" y="-507.1" font-family="Times Roman,serif" font-size="11.00">RecordNotFoundException</text>
</g>
<!-- \\SimpleAR\\RecordNotFoundException&#45;&gt;\\SimpleAR\\Exception -->
<g id="edge19" class="edge"><title>\\SimpleAR\\RecordNotFoundException&#45;&gt;\\SimpleAR\\Exception</title>
<path fill="none" stroke="black" d="M414.566,-491.886C407.206,-489.149 399.863,-486.17 393,-483 357.747,-466.716 320.112,-443.383 293.731,-425.939"/>
<polygon fill="none" stroke="black" points="295.496,-422.909 285.236,-420.268 291.609,-428.731 295.496,-422.909"/>
</g>
<!-- \\SimpleAR\\Model -->
<g id="node20" class="node"><title>\\SimpleAR\\Model</title>
<polygon fill="none" stroke="black" points="297,-312 221,-312 221,-276 297,-276 297,-312"/>
<text text-anchor="start" x="229" y="-299.433" font-family="Times Roman,serif" font-size="11.00">«abstract»</text>
<text text-anchor="start" x="242.5" y="-286.233" font-family="Times Roman,serif" font-size="11.00">Model</text>
</g>
<!-- \\SimpleAR\\DateTime -->
<g id="node21" class="node"><title>\\SimpleAR\\DateTime</title>
<polygon fill="none" stroke="black" points="508,-150 440,-150 440,-114 508,-114 508,-150"/>
<text text-anchor="middle" x="474" y="-129.1" font-family="Times Roman,serif" font-size="11.00">DateTime</text>
</g>
<!-- \\DateTime -->
<g id="node38" class="node"><title>\\DateTime</title>
<ellipse fill="none" stroke="black" cx="259" cy="-18" rx="62.2254" ry="18.3848"/>
<text text-anchor="middle" x="259" y="-14.4" font-family="Times Roman,serif" font-size="14.00" fill="gray">\DateTime</text>
</g>
<!-- \\SimpleAR\\DateTime&#45;&gt;\\DateTime -->
<g id="edge21" class="edge"><title>\\SimpleAR\\DateTime&#45;&gt;\\DateTime</title>
<path fill="none" stroke="black" d="M439.409,-123.359C424.624,-118.942 407.473,-112.826 393,-105 357.098,-85.5871 355.577,-69.685 321,-48 315.215,-44.3717 308.925,-40.8692 302.644,-37.617"/>
<polygon fill="none" stroke="black" points="304.017,-34.3902 293.508,-33.0457 300.885,-40.6503 304.017,-34.3902"/>
</g>
<!-- \\SimpleAR\\DuplicateKeyException -->
<g id="node22" class="node"><title>\\SimpleAR\\DuplicateKeyException</title>
<polygon fill="none" stroke="black" points="544,-474 404,-474 404,-438 544,-438 544,-474"/>
<text text-anchor="middle" x="474" y="-453.1" font-family="Times Roman,serif" font-size="11.00">DuplicateKeyException</text>
</g>
<!-- \\SimpleAR\\DuplicateKeyException&#45;&gt;\\SimpleAR\\Exception -->
<g id="edge27" class="edge"><title>\\SimpleAR\\DuplicateKeyException&#45;&gt;\\SimpleAR\\Exception</title>
<path fill="none" stroke="black" d="M403.898,-438.393C371.013,-430.134 332.794,-420.534 303.867,-413.269"/>
<polygon fill="none" stroke="black" points="304.598,-409.844 294.046,-410.802 302.892,-416.633 304.598,-409.844"/>
</g>
<!-- \\SimpleAR\\ReadOnlyModel -->
<g id="node23" class="node"><title>\\SimpleAR\\ReadOnlyModel</title>
<polygon fill="none" stroke="black" points="524,-312 424,-312 424,-276 524,-276 524,-312"/>
<text text-anchor="start" x="444" y="-299.433" font-family="Times Roman,serif" font-size="11.00">«abstract»</text>
<text text-anchor="start" x="432" y="-286.233" font-family="Times Roman,serif" font-size="11.00">ReadOnlyModel</text>
</g>
<!-- \\SimpleAR\\ReadOnlyModel&#45;&gt;\\SimpleAR\\Model -->
<g id="edge29" class="edge"><title>\\SimpleAR\\ReadOnlyModel&#45;&gt;\\SimpleAR\\Model</title>
<path fill="none" stroke="black" d="M423.32,-294C388.443,-294 342.367,-294 307.883,-294"/>
<polygon fill="none" stroke="black" points="307.578,-290.5 297.578,-294 307.578,-297.5 307.578,-290.5"/>
</g>
<!-- \\SimpleAR\\Config -->
<g id="node24" class="node"><title>\\SimpleAR\\Config</title>
<polygon fill="none" stroke="black" points="501,-258 447,-258 447,-222 501,-222 501,-258"/>
<text text-anchor="middle" x="474" y="-237.1" font-family="Times Roman,serif" font-size="11.00">Config</text>
</g>
<!-- \\SimpleAR\\Condition -->
<g id="node25" class="node"><title>\\SimpleAR\\Condition</title>
<polygon fill="none" stroke="black" points="507,-204 441,-204 441,-168 507,-168 507,-204"/>
<text text-anchor="middle" x="474" y="-183.1" font-family="Times Roman,serif" font-size="11.00">Condition</text>
</g>
<!-- \\SimpleAR\\DatabaseException -->
<g id="node26" class="node"><title>\\SimpleAR\\DatabaseException</title>
<polygon fill="none" stroke="black" points="535,-420 413,-420 413,-384 535,-384 535,-420"/>
<text text-anchor="middle" x="474" y="-399.1" font-family="Times Roman,serif" font-size="11.00">DatabaseException</text>
</g>
<!-- \\SimpleAR\\DatabaseException&#45;&gt;\\SimpleAR\\Exception -->
<g id="edge37" class="edge"><title>\\SimpleAR\\DatabaseException&#45;&gt;\\SimpleAR\\Exception</title>
<path fill="none" stroke="black" d="M412.39,-402C377.941,-402 335.753,-402 304.346,-402"/>
<polygon fill="none" stroke="black" points="304.135,-398.5 294.135,-402 304.135,-405.5 304.135,-398.5"/>
</g>
<!-- \\SimpleAR\\Table -->
<g id="node27" class="node"><title>\\SimpleAR\\Table</title>
<polygon fill="none" stroke="black" points="501,-96 447,-96 447,-60 501,-60 501,-96"/>
<text text-anchor="middle" x="474" y="-75.1" font-family="Times Roman,serif" font-size="11.00">Table</text>
</g>
</g>
</svg>
