<?xml version="1.0" encoding="UTF-8" standalone="no"?>
<!DOCTYPE svg PUBLIC "-//W3C//DTD SVG 1.1//EN"
 "http://www.w3.org/Graphics/SVG/1.1/DTD/svg11.dtd">
<!-- Generated by graphviz version 2.26.3 (20100126.1600)
 -->
<!-- Title: G Pages: 1 -->
<svg width="588pt" height="958pt"
 viewBox="0.00 0.00 588.00 958.00" xmlns="http://www.w3.org/2000/svg" xmlns:xlink="http://www.w3.org/1999/xlink">
<g id="graph1" class="graph" transform="scale(1 1) rotate(0) translate(4 954)">
<title>G</title>
<polygon fill="white" stroke="white" points="-4,5 -4,-954 585,-954 585,5 -4,5"/>
<g id="graph2" class="cluster"><title>cluster_Global</title>
<polyline fill="none" stroke="gray" points="20,-44 560,-44 "/>
<path fill="none" stroke="gray" d="M560,-44C566,-44 572,-50 572,-56"/>
<polyline fill="none" stroke="gray" points="572,-56 572,-930 "/>
<path fill="none" stroke="gray" d="M572,-930C572,-936 566,-942 560,-942"/>
<polyline fill="none" stroke="gray" points="560,-942 20,-942 "/>
<path fill="none" stroke="gray" d="M20,-942C14,-942 8,-936 8,-930"/>
<polyline fill="none" stroke="gray" points="8,-930 8,-56 "/>
<path fill="none" stroke="gray" d="M8,-56C8,-50 14,-44 20,-44"/>
<text text-anchor="middle" x="290" y="-928.1" font-family="Times Roman,serif" font-size="11.00" fill="gray">\</text>
</g>
<g id="graph3" class="cluster"><title>cluster_\SimpleAR</title>
<polyline fill="none" stroke="gray" points="28,-52 552,-52 "/>
<path fill="none" stroke="gray" d="M552,-52C558,-52 564,-58 564,-64"/>
<polyline fill="none" stroke="gray" points="564,-64 564,-900 "/>
<path fill="none" stroke="gray" d="M564,-900C564,-906 558,-912 552,-912"/>
<polyline fill="none" stroke="gray" points="552,-912 28,-912 "/>
<path fill="none" stroke="gray" d="M28,-912C22,-912 16,-906 16,-900"/>
<polyline fill="none" stroke="gray" points="16,-900 16,-64 "/>
<path fill="none" stroke="gray" d="M16,-64C16,-58 22,-52 28,-52"/>
<text text-anchor="middle" x="290" y="-898.1" font-family="Times Roman,serif" font-size="11.00" fill="gray">SimpleAR</text>
</g>
<g id="graph4" class="cluster"><title>cluster_\SimpleAR\Query</title>
<polyline fill="none" stroke="gray" points="225,-592 499,-592 "/>
<path fill="none" stroke="gray" d="M499,-592C505,-592 511,-598 511,-604"/>
<polyline fill="none" stroke="gray" points="511,-604 511,-870 "/>
<path fill="none" stroke="gray" d="M511,-870C511,-876 505,-882 499,-882"/>
<polyline fill="none" stroke="gray" points="499,-882 225,-882 "/>
<path fill="none" stroke="gray" d="M225,-882C219,-882 213,-876 213,-870"/>
<polyline fill="none" stroke="gray" points="213,-870 213,-604 "/>
<path fill="none" stroke="gray" d="M213,-604C213,-598 219,-592 225,-592"/>
<text text-anchor="middle" x="362" y="-868.1" font-family="Times Roman,serif" font-size="11.00" fill="gray">Query</text>
</g>
<!-- \\SimpleAR\\Query\\Insert -->
<g id="node4" class="node"><title>\\SimpleAR\\Query\\Insert</title>
<polygon fill="none" stroke="black" points="502,-852 448,-852 448,-816 502,-816 502,-852"/>
<text text-anchor="middle" x="475" y="-831.1" font-family="Times Roman,serif" font-size="11.00">Insert</text>
</g>
<!-- \\SimpleAR\\Query -->
<g id="node14" class="node"><title>\\SimpleAR\\Query</title>
<polygon fill="none" stroke="black" points="101,-780 25,-780 25,-744 101,-744 101,-780"/>
<text text-anchor="start" x="33" y="-767.433" font-family="Times Roman,serif" font-size="11.00">«abstract»</text>
<text text-anchor="start" x="46" y="-754.233" font-family="Times Roman,serif" font-size="11.00">Query</text>
</g>
<!-- \\SimpleAR\\Query\\Insert&#45;&gt;\\SimpleAR\\Query -->
<g id="edge9" class="edge"><title>\\SimpleAR\\Query\\Insert&#45;&gt;\\SimpleAR\\Query</title>
<path fill="none" stroke="black" d="M447.968,-829.276C379.603,-817.329 199.059,-785.777 111.708,-770.512"/>
<polygon fill="none" stroke="black" points="112.236,-767.051 101.783,-768.778 111.031,-773.947 112.236,-767.051"/>
</g>
<!-- \\SimpleAR\\Query\\Count -->
<g id="node5" class="node"><title>\\SimpleAR\\Query\\Count</title>
<polygon fill="none" stroke="black" points="502,-798 448,-798 448,-762 502,-762 502,-798"/>
<text text-anchor="middle" x="475" y="-777.1" font-family="Times Roman,serif" font-size="11.00">Count</text>
</g>
<!-- \\SimpleAR\\Query\\Where -->
<g id="node9" class="node"><title>\\SimpleAR\\Query\\Where</title>
<polygon fill="none" stroke="black" points="298,-744 222,-744 222,-708 298,-708 298,-744"/>
<text text-anchor="start" x="230" y="-731.433" font-family="Times Roman,serif" font-size="11.00">«abstract»</text>
<text text-anchor="start" x="241.5" y="-718.233" font-family="Times Roman,serif" font-size="11.00">Where</text>
</g>
<!-- \\SimpleAR\\Query\\Count&#45;&gt;\\SimpleAR\\Query\\Where -->
<g id="edge15" class="edge"><title>\\SimpleAR\\Query\\Count&#45;&gt;\\SimpleAR\\Query\\Where</title>
<path fill="none" stroke="black" d="M447.77,-773.161C412.757,-764.367 351.35,-748.944 308.32,-738.136"/>
<polygon fill="none" stroke="black" points="309.171,-734.741 298.62,-735.7 307.466,-741.531 309.171,-734.741"/>
</g>
<!-- \\SimpleAR\\Query\\Delete -->
<g id="node6" class="node"><title>\\SimpleAR\\Query\\Delete</title>
<polygon fill="none" stroke="black" points="502,-744 448,-744 448,-708 502,-708 502,-744"/>
<text text-anchor="middle" x="475" y="-723.1" font-family="Times Roman,serif" font-size="11.00">Delete</text>
</g>
<!-- \\SimpleAR\\Query\\Delete&#45;&gt;\\SimpleAR\\Query\\Where -->
<g id="edge19" class="edge"><title>\\SimpleAR\\Query\\Delete&#45;&gt;\\SimpleAR\\Query\\Where</title>
<path fill="none" stroke="black" d="M447.77,-726C412.904,-726 351.866,-726 308.864,-726"/>
<polygon fill="none" stroke="black" points="308.62,-722.5 298.62,-726 308.62,-729.5 308.62,-722.5"/>
</g>
<!-- \\SimpleAR\\Query\\Select -->
<g id="node7" class="node"><title>\\SimpleAR\\Query\\Select</title>
<polygon fill="none" stroke="black" points="502,-690 448,-690 448,-654 502,-654 502,-690"/>
<text text-anchor="middle" x="475" y="-669.1" font-family="Times Roman,serif" font-size="11.00">Select</text>
</g>
<!-- \\SimpleAR\\Query\\Select&#45;&gt;\\SimpleAR\\Query\\Where -->
<g id="edge23" class="edge"><title>\\SimpleAR\\Query\\Select&#45;&gt;\\SimpleAR\\Query\\Where</title>
<path fill="none" stroke="black" d="M447.77,-678.839C412.757,-687.633 351.35,-703.056 308.32,-713.864"/>
<polygon fill="none" stroke="black" points="307.466,-710.469 298.62,-716.3 309.171,-717.259 307.466,-710.469"/>
</g>
<!-- \\SimpleAR\\Query\\Update -->
<g id="node8" class="node"><title>\\SimpleAR\\Query\\Update</title>
<polygon fill="none" stroke="black" points="503,-636 447,-636 447,-600 503,-600 503,-636"/>
<text text-anchor="middle" x="475" y="-615.1" font-family="Times Roman,serif" font-size="11.00">Update</text>
</g>
<!-- \\SimpleAR\\Query\\Update&#45;&gt;\\SimpleAR\\Query\\Where -->
<g id="edge25" class="edge"><title>\\SimpleAR\\Query\\Update&#45;&gt;\\SimpleAR\\Query\\Where</title>
<path fill="none" stroke="black" d="M446.96,-624.626C430.863,-629.085 410.613,-635.835 394,-645 357.775,-664.984 358.031,-683.669 322,-704 317.575,-706.497 312.816,-708.79 307.972,-710.875"/>
<polygon fill="none" stroke="black" points="306.597,-707.656 298.619,-714.628 309.203,-714.153 306.597,-707.656"/>
</g>
<!-- \\SimpleAR\\Query\\Where&#45;&gt;\\SimpleAR\\Query -->
<g id="edge29" class="edge"><title>\\SimpleAR\\Query\\Where&#45;&gt;\\SimpleAR\\Query</title>
<path fill="none" stroke="black" d="M221.079,-733.112C189.679,-738.851 145.339,-746.953 111.606,-753.118"/>
<polygon fill="none" stroke="black" points="110.712,-749.723 101.504,-754.964 111.971,-756.609 110.712,-749.723"/>
</g>
<!-- \\SimpleAR\\DateTime -->
<g id="node10" class="node"><title>\\SimpleAR\\DateTime</title>
<polygon fill="none" stroke="black" points="510,-96 440,-96 440,-60 510,-60 510,-96"/>
<text text-anchor="middle" x="475" y="-75.1" font-family="Times Roman,serif" font-size="11.00">DateTime</text>
</g>
<!-- \\DateTime -->
<g id="node24" class="node"><title>\\DateTime</title>
<ellipse fill="none" stroke="black" cx="260" cy="-18" rx="62.2254" ry="18.3848"/>
<text text-anchor="middle" x="260" y="-14.4" font-family="Times Roman,serif" font-size="14.00" fill="gray">\DateTime</text>
</g>
<!-- \\SimpleAR\\DateTime&#45;&gt;\\DateTime -->
<g id="edge5" class="edge"><title>\\SimpleAR\\DateTime&#45;&gt;\\DateTime</title>
<path fill="none" stroke="black" d="M439.978,-68.2264C405.973,-58.7366 353.857,-44.1926 314.442,-33.193"/>
<polygon fill="none" stroke="black" points="315.286,-29.795 304.713,-30.4781 313.405,-36.5374 315.286,-29.795"/>
</g>
<!-- \\SimpleAR\\DuplicateKeyException -->
<g id="node11" class="node"><title>\\SimpleAR\\DuplicateKeyException</title>
<polygon fill="none" stroke="black" points="545,-312 405,-312 405,-276 545,-276 545,-312"/>
<text text-anchor="middle" x="475" y="-291.1" font-family="Times Roman,serif" font-size="11.00">DuplicateKeyException</text>
</g>
<!-- \\SimpleAR\\Exception -->
<g id="node16" class="node"><title>\\SimpleAR\\Exception</title>
<polygon fill="none" stroke="black" points="295,-420 225,-420 225,-384 295,-384 295,-420"/>
<text text-anchor="middle" x="260" y="-399.1" font-family="Times Roman,serif" font-size="11.00">Exception</text>
</g>
<!-- \\SimpleAR\\DuplicateKeyException&#45;&gt;\\SimpleAR\\Exception -->
<g id="edge7" class="edge"><title>\\SimpleAR\\DuplicateKeyException&#45;&gt;\\SimpleAR\\Exception</title>
<path fill="none" stroke="black" d="M415.566,-312.114C408.206,-314.851 400.863,-317.83 394,-321 358.747,-337.284 321.112,-360.617 294.731,-378.061"/>
<polygon fill="none" stroke="black" points="292.609,-375.269 286.236,-383.732 296.496,-381.091 292.609,-375.269"/>
</g>
<!-- \\SimpleAR\\Condition -->
<g id="node12" class="node"><title>\\SimpleAR\\Condition</title>
<polygon fill="none" stroke="black" points="508,-474 442,-474 442,-438 508,-438 508,-474"/>
<text text-anchor="middle" x="475" y="-453.1" font-family="Times Roman,serif" font-size="11.00">Condition</text>
</g>
<!-- \\SimpleAR\\ReadOnlyException -->
<g id="node13" class="node"><title>\\SimpleAR\\ReadOnlyException</title>
<polygon fill="none" stroke="black" points="536,-582 414,-582 414,-546 536,-546 536,-582"/>
<text text-anchor="middle" x="475" y="-561.1" font-family="Times Roman,serif" font-size="11.00">ReadOnlyException</text>
</g>
<!-- \\SimpleAR\\ReadOnlyException&#45;&gt;\\SimpleAR\\Exception -->
<g id="edge11" class="edge"><title>\\SimpleAR\\ReadOnlyException&#45;&gt;\\SimpleAR\\Exception</title>
<path fill="none" stroke="black" d="M413.872,-547.101C406.948,-544.183 400.171,-540.83 394,-537 346.809,-507.713 303.787,-458.638 279.826,-428.418"/>
<polygon fill="none" stroke="black" points="282.498,-426.153 273.585,-420.426 276.981,-430.462 282.498,-426.153"/>
</g>
<!-- \\SimpleAR\\Database -->
<g id="node15" class="node"><title>\\SimpleAR\\Database</title>
<polygon fill="none" stroke="black" points="509,-366 441,-366 441,-330 509,-330 509,-366"/>
<text text-anchor="middle" x="475" y="-345.1" font-family="Times Roman,serif" font-size="11.00">Database</text>
</g>
<!-- \\Exception -->
<g id="node29" class="node"><title>\\Exception</title>
<ellipse fill="none" stroke="black" cx="63" cy="-18" rx="62.9325" ry="18.3848"/>
<text text-anchor="middle" x="63" y="-14.4" font-family="Times Roman,serif" font-size="14.00" fill="gray">\Exception</text>
</g>
<!-- \\SimpleAR\\Exception&#45;&gt;\\Exception -->
<g id="edge13" class="edge"><title>\\SimpleAR\\Exception&#45;&gt;\\Exception</title>
<path fill="none" stroke="black" d="M253.939,-383.612C231.109,-314.718 150.369,-74.4688 126,-48 122.154,-43.8224 117.604,-40.1688 112.737,-36.9875"/>
<polygon fill="none" stroke="black" points="114.124,-33.7463 103.717,-31.7598 110.614,-39.8026 114.124,-33.7463"/>
</g>
<!-- \\SimpleAR\\DatabaseException -->
<g id="node17" class="node"><title>\\SimpleAR\\DatabaseException</title>
<polygon fill="none" stroke="black" points="536,-528 414,-528 414,-492 536,-492 536,-528"/>
<text text-anchor="middle" x="475" y="-507.1" font-family="Times Roman,serif" font-size="11.00">DatabaseException</text>
</g>
<!-- \\SimpleAR\\DatabaseException&#45;&gt;\\SimpleAR\\Exception -->
<g id="edge17" class="edge"><title>\\SimpleAR\\DatabaseException&#45;&gt;\\SimpleAR\\Exception</title>
<path fill="none" stroke="black" d="M415.566,-491.886C408.206,-489.149 400.863,-486.17 394,-483 358.747,-466.716 321.112,-443.383 294.731,-425.939"/>
<polygon fill="none" stroke="black" points="296.496,-422.909 286.236,-420.268 292.609,-428.731 296.496,-422.909"/>
</g>
<!-- \\SimpleAR\\Table -->
<g id="node18" class="node"><title>\\SimpleAR\\Table</title>
<polygon fill="none" stroke="black" points="502,-258 448,-258 448,-222 502,-222 502,-258"/>
<text text-anchor="middle" x="475" y="-237.1" font-family="Times Roman,serif" font-size="11.00">Table</text>
</g>
<!-- \\SimpleAR\\ReadOnlyModel -->
<g id="node19" class="node"><title>\\SimpleAR\\ReadOnlyModel</title>
<polygon fill="none" stroke="black" points="525,-204 425,-204 425,-168 525,-168 525,-204"/>
<text text-anchor="start" x="445" y="-191.433" font-family="Times Roman,serif" font-size="11.00">«abstract»</text>
<text text-anchor="start" x="433" y="-178.233" font-family="Times Roman,serif" font-size="11.00">ReadOnlyModel</text>
</g>
<!-- \\SimpleAR\\Model -->
<g id="node21" class="node"><title>\\SimpleAR\\Model</title>
<polygon fill="none" stroke="black" points="298,-204 222,-204 222,-168 298,-168 298,-204"/>
<text text-anchor="start" x="230" y="-191.433" font-family="Times Roman,serif" font-size="11.00">«abstract»</text>
<text text-anchor="start" x="243.5" y="-178.233" font-family="Times Roman,serif" font-size="11.00">Model</text>
</g>
<!-- \\SimpleAR\\ReadOnlyModel&#45;&gt;\\SimpleAR\\Model -->
<g id="edge21" class="edge"><title>\\SimpleAR\\ReadOnlyModel&#45;&gt;\\SimpleAR\\Model</title>
<path fill="none" stroke="black" d="M424.32,-186C389.443,-186 343.367,-186 308.883,-186"/>
<polygon fill="none" stroke="black" points="308.578,-182.5 298.578,-186 308.578,-189.5 308.578,-182.5"/>
</g>
<!-- \\SimpleAR\\Config -->
<g id="node20" class="node"><title>\\SimpleAR\\Config</title>
<polygon fill="none" stroke="black" points="502,-150 448,-150 448,-114 502,-114 502,-150"/>
<text text-anchor="middle" x="475" y="-129.1" font-family="Times Roman,serif" font-size="11.00">Config</text>
</g>
<!-- \\SimpleAR\\RecordNotFoundException -->
<g id="node22" class="node"><title>\\SimpleAR\\RecordNotFoundException</title>
<polygon fill="none" stroke="black" points="555,-420 395,-420 395,-384 555,-384 555,-420"/>
<text text-anchor="middle" x="475" y="-399.1" font-family="Times Roman,serif" font-size="11.00">RecordNotFoundException</text>
</g>
<!-- \\SimpleAR\\RecordNotFoundException&#45;&gt;\\SimpleAR\\Exception -->
<g id="edge27" class="edge"><title>\\SimpleAR\\RecordNotFoundException&#45;&gt;\\SimpleAR\\Exception</title>
<path fill="none" stroke="black" d="M394.33,-402C364.483,-402 331.689,-402 305.974,-402"/>
<polygon fill="none" stroke="black" points="305.775,-398.5 295.775,-402 305.775,-405.5 305.775,-398.5"/>
</g>
</g>
</svg>
