<?xml version="1.0" encoding="UTF-8" standalone="no"?>
<!DOCTYPE svg PUBLIC "-//W3C//DTD SVG 1.1//EN"
 "http://www.w3.org/Graphics/SVG/1.1/DTD/svg11.dtd">
<!-- Generated by graphviz version 2.26.3 (20100126.1600)
 -->
<!-- Title: G Pages: 1 -->
<svg width="587pt" height="1066pt"
 viewBox="0.00 0.00 587.00 1066.00" xmlns="http://www.w3.org/2000/svg" xmlns:xlink="http://www.w3.org/1999/xlink">
<g id="graph1" class="graph" transform="scale(1 1) rotate(0) translate(4 1062)">
<title>G</title>
<polygon fill="white" stroke="white" points="-4,5 -4,-1062 584,-1062 584,5 -4,5"/>
<g id="graph2" class="cluster"><title>cluster_Global</title>
<polyline fill="none" stroke="gray" points="20,-44 559,-44 "/>
<path fill="none" stroke="gray" d="M559,-44C565,-44 571,-50 571,-56"/>
<polyline fill="none" stroke="gray" points="571,-56 571,-1038 "/>
<path fill="none" stroke="gray" d="M571,-1038C571,-1044 565,-1050 559,-1050"/>
<polyline fill="none" stroke="gray" points="559,-1050 20,-1050 "/>
<path fill="none" stroke="gray" d="M20,-1050C14,-1050 8,-1044 8,-1038"/>
<polyline fill="none" stroke="gray" points="8,-1038 8,-56 "/>
<path fill="none" stroke="gray" d="M8,-56C8,-50 14,-44 20,-44"/>
<text text-anchor="middle" x="289.5" y="-1036.1" font-family="Times Roman,serif" font-size="11.00" fill="gray">\</text>
</g>
<g id="graph3" class="cluster"><title>cluster_\SimpleAR</title>
<polyline fill="none" stroke="gray" points="28,-52 551,-52 "/>
<path fill="none" stroke="gray" d="M551,-52C557,-52 563,-58 563,-64"/>
<polyline fill="none" stroke="gray" points="563,-64 563,-1008 "/>
<path fill="none" stroke="gray" d="M563,-1008C563,-1014 557,-1020 551,-1020"/>
<polyline fill="none" stroke="gray" points="551,-1020 28,-1020 "/>
<path fill="none" stroke="gray" d="M28,-1020C22,-1020 16,-1014 16,-1008"/>
<polyline fill="none" stroke="gray" points="16,-1008 16,-64 "/>
<path fill="none" stroke="gray" d="M16,-64C16,-58 22,-52 28,-52"/>
<text text-anchor="middle" x="289.5" y="-1006.1" font-family="Times Roman,serif" font-size="11.00" fill="gray">SimpleAR</text>
</g>
<g id="graph4" class="cluster"><title>cluster_\SimpleAR\Query</title>
<polyline fill="none" stroke="gray" points="224,-754 498,-754 "/>
<path fill="none" stroke="gray" d="M498,-754C504,-754 510,-760 510,-766"/>
<polyline fill="none" stroke="gray" points="510,-766 510,-978 "/>
<path fill="none" stroke="gray" d="M510,-978C510,-984 504,-990 498,-990"/>
<polyline fill="none" stroke="gray" points="498,-990 224,-990 "/>
<path fill="none" stroke="gray" d="M224,-990C218,-990 212,-984 212,-978"/>
<polyline fill="none" stroke="gray" points="212,-978 212,-766 "/>
<path fill="none" stroke="gray" d="M212,-766C212,-760 218,-754 224,-754"/>
<text text-anchor="middle" x="361" y="-976.1" font-family="Times Roman,serif" font-size="11.00" fill="gray">Query</text>
</g>
<!-- \\SimpleAR\\Query\\Delete -->
<g id="node4" class="node"><title>\\SimpleAR\\Query\\Delete</title>
<polygon fill="none" stroke="black" points="501,-906 447,-906 447,-870 501,-870 501,-906"/>
<text text-anchor="middle" x="474" y="-885.1" font-family="Times Roman,serif" font-size="11.00">Delete</text>
</g>
<!-- \\SimpleAR\\Query\\Where -->
<g id="node8" class="node"><title>\\SimpleAR\\Query\\Where</title>
<polygon fill="none" stroke="black" points="297,-870 221,-870 221,-834 297,-834 297,-870"/>
<text text-anchor="start" x="229" y="-857.433" font-family="Times Roman,serif" font-size="11.00">«abstract»</text>
<text text-anchor="start" x="241" y="-844.233" font-family="Times Roman,serif" font-size="11.00">Where</text>
</g>
<!-- \\SimpleAR\\Query\\Delete&#45;&gt;\\SimpleAR\\Query\\Where -->
<g id="edge5" class="edge"><title>\\SimpleAR\\Query\\Delete&#45;&gt;\\SimpleAR\\Query\\Where</title>
<path fill="none" stroke="black" d="M446.77,-883.441C411.831,-877.59 350.608,-867.339 307.592,-860.136"/>
<polygon fill="none" stroke="black" points="308.061,-856.666 297.62,-858.467 306.905,-863.57 308.061,-856.666"/>
</g>
<!-- \\SimpleAR\\Query\\Insert -->
<g id="node5" class="node"><title>\\SimpleAR\\Query\\Insert</title>
<polygon fill="none" stroke="black" points="501,-960 447,-960 447,-924 501,-924 501,-960"/>
<text text-anchor="middle" x="474" y="-939.1" font-family="Times Roman,serif" font-size="11.00">Insert</text>
</g>
<!-- \\SimpleAR\\Query -->
<g id="node24" class="node"><title>\\SimpleAR\\Query</title>
<polygon fill="none" stroke="black" points="101,-906 25,-906 25,-870 101,-870 101,-906"/>
<text text-anchor="start" x="33" y="-893.433" font-family="Times Roman,serif" font-size="11.00">«abstract»</text>
<text text-anchor="start" x="46" y="-880.233" font-family="Times Roman,serif" font-size="11.00">Query</text>
</g>
<!-- \\SimpleAR\\Query\\Insert&#45;&gt;\\SimpleAR\\Query -->
<g id="edge7" class="edge"><title>\\SimpleAR\\Query\\Insert&#45;&gt;\\SimpleAR\\Query</title>
<path fill="none" stroke="black" d="M446.715,-938.415C378.318,-929.429 198.817,-905.845 111.752,-894.405"/>
<polygon fill="none" stroke="black" points="111.977,-890.905 101.606,-893.072 111.065,-897.845 111.977,-890.905"/>
</g>
<!-- \\SimpleAR\\Query\\Update -->
<g id="node6" class="node"><title>\\SimpleAR\\Query\\Update</title>
<polygon fill="none" stroke="black" points="502,-852 446,-852 446,-816 502,-816 502,-852"/>
<text text-anchor="middle" x="474" y="-831.1" font-family="Times Roman,serif" font-size="11.00">Update</text>
</g>
<!-- \\SimpleAR\\Query\\Update&#45;&gt;\\SimpleAR\\Query\\Where -->
<g id="edge9" class="edge"><title>\\SimpleAR\\Query\\Update&#45;&gt;\\SimpleAR\\Query\\Where</title>
<path fill="none" stroke="black" d="M445.893,-836.353C410.876,-839.285 350.467,-844.342 307.821,-847.913"/>
<polygon fill="none" stroke="black" points="307.332,-844.441 297.659,-848.763 307.916,-851.417 307.332,-844.441"/>
</g>
<!-- \\SimpleAR\\Query\\Select -->
<g id="node7" class="node"><title>\\SimpleAR\\Query\\Select</title>
<polygon fill="none" stroke="black" points="501,-798 447,-798 447,-762 501,-762 501,-798"/>
<text text-anchor="middle" x="474" y="-777.1" font-family="Times Roman,serif" font-size="11.00">Select</text>
</g>
<!-- \\SimpleAR\\Query\\Select&#45;&gt;\\SimpleAR\\Query\\Where -->
<g id="edge11" class="edge"><title>\\SimpleAR\\Query\\Select&#45;&gt;\\SimpleAR\\Query\\Where</title>
<path fill="none" stroke="black" d="M446.995,-788.985C431.243,-794.23 410.993,-800.98 393,-807 364.647,-816.486 332.933,-827.135 307.478,-835.691"/>
<polygon fill="none" stroke="black" points="306.057,-832.476 297.694,-838.98 308.288,-839.111 306.057,-832.476"/>
</g>
<!-- \\SimpleAR\\Query\\Where&#45;&gt;\\SimpleAR\\Query -->
<g id="edge13" class="edge"><title>\\SimpleAR\\Query\\Where&#45;&gt;\\SimpleAR\\Query</title>
<path fill="none" stroke="black" d="M220.277,-859.112C189.137,-864.832 145.206,-872.901 111.686,-879.058"/>
<polygon fill="none" stroke="black" points="110.846,-875.653 101.643,-880.902 112.111,-882.538 110.846,-875.653"/>
</g>
<!-- \\SimpleAR\\Table -->
<g id="node9" class="node"><title>\\SimpleAR\\Table</title>
<polygon fill="none" stroke="black" points="501,-744 447,-744 447,-708 501,-708 501,-744"/>
<text text-anchor="middle" x="474" y="-723.1" font-family="Times Roman,serif" font-size="11.00">Table</text>
</g>
<!-- \\SimpleAR\\Config -->
<g id="node10" class="node"><title>\\SimpleAR\\Config</title>
<polygon fill="none" stroke="black" points="501,-690 447,-690 447,-654 501,-654 501,-690"/>
<text text-anchor="middle" x="474" y="-669.1" font-family="Times Roman,serif" font-size="11.00">Config</text>
</g>
<!-- \\SimpleAR\\Condition -->
<g id="node11" class="node"><title>\\SimpleAR\\Condition</title>
<polygon fill="none" stroke="black" points="507,-636 441,-636 441,-600 507,-600 507,-636"/>
<text text-anchor="middle" x="474" y="-615.1" font-family="Times Roman,serif" font-size="11.00">Condition</text>
</g>
<!-- \\SimpleAR\\DateTime -->
<g id="node12" class="node"><title>\\SimpleAR\\DateTime</title>
<polygon fill="none" stroke="black" points="508,-96 440,-96 440,-60 508,-60 508,-96"/>
<text text-anchor="middle" x="474" y="-75.1" font-family="Times Roman,serif" font-size="11.00">DateTime</text>
</g>
<!-- \\DateTime -->
<g id="node31" class="node"><title>\\DateTime</title>
<ellipse fill="none" stroke="black" cx="259" cy="-18" rx="62.2254" ry="18.3848"/>
<text text-anchor="middle" x="259" y="-14.4" font-family="Times Roman,serif" font-size="14.00" fill="gray">\DateTime</text>
</g>
<!-- \\SimpleAR\\DateTime&#45;&gt;\\DateTime -->
<g id="edge15" class="edge"><title>\\SimpleAR\\DateTime&#45;&gt;\\DateTime</title>
<path fill="none" stroke="black" d="M439.457,-68.36C405.534,-58.8931 353.259,-44.3048 313.688,-33.2616"/>
<polygon fill="none" stroke="black" points="314.492,-29.8526 303.92,-30.5357 312.611,-36.595 314.492,-29.8526"/>
</g>
<!-- \\SimpleAR\\Relationship -->
<g id="node13" class="node"><title>\\SimpleAR\\Relationship</title>
<polygon fill="none" stroke="black" points="300,-501 218,-501 218,-465 300,-465 300,-501"/>
<text text-anchor="start" x="229" y="-488.433" font-family="Times Roman,serif" font-size="11.00">«abstract»</text>
<text text-anchor="start" x="226.5" y="-475.233" font-family="Times Roman,serif" font-size="11.00">Relationship</text>
</g>
<!-- \\SimpleAR\\BelongsTo -->
<g id="node14" class="node"><title>\\SimpleAR\\BelongsTo</title>
<polygon fill="none" stroke="black" points="509,-474 439,-474 439,-438 509,-438 509,-474"/>
<text text-anchor="middle" x="474" y="-453.1" font-family="Times Roman,serif" font-size="11.00">BelongsTo</text>
</g>
<!-- \\SimpleAR\\BelongsTo&#45;&gt;\\SimpleAR\\Relationship -->
<g id="edge17" class="edge"><title>\\SimpleAR\\BelongsTo&#45;&gt;\\SimpleAR\\Relationship</title>
<path fill="none" stroke="black" d="M438.497,-460.459C403.497,-464.854 349.652,-471.616 310.062,-476.588"/>
<polygon fill="none" stroke="black" points="309.555,-473.124 300.069,-477.843 310.427,-480.069 309.555,-473.124"/>
</g>
<!-- \\SimpleAR\\HasOne -->
<g id="node15" class="node"><title>\\SimpleAR\\HasOne</title>
<polygon fill="none" stroke="black" points="504,-420 444,-420 444,-384 504,-384 504,-420"/>
<text text-anchor="middle" x="474" y="-399.1" font-family="Times Roman,serif" font-size="11.00">HasOne</text>
</g>
<!-- \\SimpleAR\\HasOne&#45;&gt;\\SimpleAR\\Relationship -->
<g id="edge19" class="edge"><title>\\SimpleAR\\HasOne&#45;&gt;\\SimpleAR\\Relationship</title>
<path fill="none" stroke="black" d="M443.843,-411.566C428.536,-416.544 409.695,-422.86 393,-429 365.134,-439.248 334.386,-451.565 309.381,-461.846"/>
<polygon fill="none" stroke="black" points="308.005,-458.628 300.097,-465.678 310.675,-465.098 308.005,-458.628"/>
</g>
<!-- \\SimpleAR\\HasMany -->
<g id="node16" class="node"><title>\\SimpleAR\\HasMany</title>
<polygon fill="none" stroke="black" points="507,-582 441,-582 441,-546 507,-546 507,-582"/>
<text text-anchor="middle" x="474" y="-561.1" font-family="Times Roman,serif" font-size="11.00">HasMany</text>
</g>
<!-- \\SimpleAR\\HasMany&#45;&gt;\\SimpleAR\\Relationship -->
<g id="edge21" class="edge"><title>\\SimpleAR\\HasMany&#45;&gt;\\SimpleAR\\Relationship</title>
<path fill="none" stroke="black" d="M440.342,-553.292C425.722,-548.51 408.443,-542.679 393,-537 365.134,-526.752 334.386,-514.435 309.381,-504.154"/>
<polygon fill="none" stroke="black" points="310.675,-500.902 300.097,-500.322 308.005,-507.372 310.675,-500.902"/>
</g>
<!-- \\SimpleAR\\ManyMany -->
<g id="node17" class="node"><title>\\SimpleAR\\ManyMany</title>
<polygon fill="none" stroke="black" points="511,-528 437,-528 437,-492 511,-492 511,-528"/>
<text text-anchor="middle" x="474" y="-507.1" font-family="Times Roman,serif" font-size="11.00">ManyMany</text>
</g>
<!-- \\SimpleAR\\ManyMany&#45;&gt;\\SimpleAR\\Relationship -->
<g id="edge23" class="edge"><title>\\SimpleAR\\ManyMany&#45;&gt;\\SimpleAR\\Relationship</title>
<path fill="none" stroke="black" d="M436.057,-505.235C401.088,-500.844 348.91,-494.291 310.247,-489.436"/>
<polygon fill="none" stroke="black" points="310.586,-485.951 300.228,-488.177 309.713,-492.896 310.586,-485.951"/>
</g>
<!-- \\SimpleAR\\Model -->
<g id="node18" class="node"><title>\\SimpleAR\\Model</title>
<polygon fill="none" stroke="black" points="512,-312 436,-312 436,-276 512,-276 512,-312"/>
<text text-anchor="start" x="444" y="-299.433" font-family="Times Roman,serif" font-size="11.00">«abstract»</text>
<text text-anchor="start" x="457.5" y="-286.233" font-family="Times Roman,serif" font-size="11.00">Model</text>
</g>
<!-- \\SimpleAR\\Database -->
<g id="node19" class="node"><title>\\SimpleAR\\Database</title>
<polygon fill="none" stroke="black" points="508,-258 440,-258 440,-222 508,-222 508,-258"/>
<text text-anchor="middle" x="474" y="-237.1" font-family="Times Roman,serif" font-size="11.00">Database</text>
</g>
<!-- \\SimpleAR\\Exception -->
<g id="node20" class="node"><title>\\SimpleAR\\Exception</title>
<polygon fill="none" stroke="black" points="294,-177 224,-177 224,-141 294,-141 294,-177"/>
<text text-anchor="middle" x="259" y="-156.1" font-family="Times Roman,serif" font-size="11.00">Exception</text>
</g>
<!-- \\Exception -->
<g id="node37" class="node"><title>\\Exception</title>
<ellipse fill="none" stroke="black" cx="63" cy="-18" rx="62.2254" ry="18.3848"/>
<text text-anchor="middle" x="63" y="-14.4" font-family="Times Roman,serif" font-size="14.00" fill="gray">\Exception</text>
</g>
<!-- \\SimpleAR\\Exception&#45;&gt;\\Exception -->
<g id="edge25" class="edge"><title>\\SimpleAR\\Exception&#45;&gt;\\Exception</title>
<path fill="none" stroke="black" d="M223.897,-150.286C214.646,-147.018 205.018,-142.673 197,-137 155.467,-107.612 164.86,-79.6201 125,-48 120.082,-44.0985 114.573,-40.5355 108.923,-37.3362"/>
<polygon fill="none" stroke="black" points="110.469,-34.1944 99.9932,-32.6119 107.196,-40.3819 110.469,-34.1944"/>
</g>
<!-- \\SimpleAR\\DatabaseException -->
<g id="node21" class="node"><title>\\SimpleAR\\DatabaseException</title>
<polygon fill="none" stroke="black" points="535,-150 413,-150 413,-114 535,-114 535,-150"/>
<text text-anchor="middle" x="474" y="-129.1" font-family="Times Roman,serif" font-size="11.00">DatabaseException</text>
</g>
<!-- \\SimpleAR\\DatabaseException&#45;&gt;\\SimpleAR\\Exception -->
<g id="edge27" class="edge"><title>\\SimpleAR\\DatabaseException&#45;&gt;\\SimpleAR\\Exception</title>
<path fill="none" stroke="black" d="M412.39,-139.737C377.941,-144.063 335.753,-149.361 304.346,-153.305"/>
<polygon fill="none" stroke="black" points="303.621,-149.869 294.135,-154.588 304.494,-156.814 303.621,-149.869"/>
</g>
<!-- \\SimpleAR\\RecordNotFoundException -->
<g id="node22" class="node"><title>\\SimpleAR\\RecordNotFoundException</title>
<polygon fill="none" stroke="black" points="554,-366 394,-366 394,-330 554,-330 554,-366"/>
<text text-anchor="middle" x="474" y="-345.1" font-family="Times Roman,serif" font-size="11.00">RecordNotFoundException</text>
</g>
<!-- \\SimpleAR\\RecordNotFoundException&#45;&gt;\\SimpleAR\\Exception -->
<g id="edge29" class="edge"><title>\\SimpleAR\\RecordNotFoundException&#45;&gt;\\SimpleAR\\Exception</title>
<path fill="none" stroke="black" d="M408.761,-329.929C403.231,-327.315 397.891,-324.351 393,-321 340.07,-284.732 296.647,-221.885 274.632,-186.063"/>
<polygon fill="none" stroke="black" points="277.415,-183.899 269.252,-177.145 271.421,-187.516 277.415,-183.899"/>
</g>
<!-- \\SimpleAR\\DuplicateKeyException -->
<g id="node23" class="node"><title>\\SimpleAR\\DuplicateKeyException</title>
<polygon fill="none" stroke="black" points="544,-204 404,-204 404,-168 544,-168 544,-204"/>
<text text-anchor="middle" x="474" y="-183.1" font-family="Times Roman,serif" font-size="11.00">DuplicateKeyException</text>
</g>
<!-- \\SimpleAR\\DuplicateKeyException&#45;&gt;\\SimpleAR\\Exception -->
<g id="edge31" class="edge"><title>\\SimpleAR\\DuplicateKeyException&#45;&gt;\\SimpleAR\\Exception</title>
<path fill="none" stroke="black" d="M403.898,-177.197C371.157,-173.085 333.128,-168.309 304.246,-164.682"/>
<polygon fill="none" stroke="black" points="304.405,-161.175 294.046,-163.401 303.532,-168.12 304.405,-161.175"/>
</g>
</g>
</svg>
